<svg id="svg" version="1.1" xmlns="http://www.w3.org/2000/svg" xmlns:xlink="http://www.w3.org/1999/xlink" width="400" height="400" viewBox="0, 0, 400,400"><g id="svgg"><path id="path0" d="M0.000 200.000 L 0.000 400.000 200.000 400.000 L 400.000 400.000 400.000 200.000 L 400.000 0.000 200.000 0.000 L 0.000 0.000 0.000 200.000 M209.375 95.325 C 217.586 97.600,224.365 102.806,228.559 110.059 L 229.745 112.109 231.376 111.816 C 255.107 107.555,272.718 133.330,260.405 154.303 C 256.189 161.486,246.292 167.578,238.842 167.578 L 237.891 167.578 237.888 178.027 C 237.887 183.774,237.776 189.889,237.642 191.615 L 237.397 194.754 232.468 193.896 C 214.130 190.707,192.679 191.807,173.874 196.901 C 170.460 197.826,169.829 197.619,172.503 196.451 C 187.794 189.777,212.027 186.213,228.257 188.250 C 230.371 188.515,232.160 188.674,232.232 188.602 C 232.304 188.530,232.551 184.253,232.782 179.099 C 233.012 173.944,233.306 168.387,233.434 166.749 L 233.666 163.772 236.257 163.507 C 264.246 160.639,265.727 120.009,237.982 116.221 C 234.862 115.795,231.131 116.315,231.447 117.131 C 231.988 118.523,232.439 124.614,232.136 126.420 L 231.817 128.320 230.951 124.814 C 226.108 105.207,205.762 94.945,188.228 103.265 C 177.686 108.268,170.549 118.966,170.015 130.566 C 169.909 132.876,169.688 134.766,169.525 134.766 C 168.550 134.766,168.167 124.070,168.995 119.957 L 169.263 118.625 165.926 118.861 C 149.248 120.038,138.443 134.590,143.160 149.522 C 146.260 159.335,156.350 166.150,166.113 165.026 L 168.359 164.767 168.359 160.536 L 168.359 156.305 170.410 155.710 C 176.186 154.032,177.669 153.823,185.209 153.626 C 193.068 153.421,197.025 153.919,191.973 154.478 C 185.647 155.177,177.725 157.136,173.783 158.976 C 172.591 159.532,172.273 161.595,172.268 168.802 C 172.265 173.375,172.239 173.418,169.434 173.432 C 168.382 173.437,168.359 173.389,168.359 171.121 L 168.359 168.805 167.090 169.190 C 157.342 172.152,143.800 165.433,138.814 155.162 C 128.946 134.835,146.834 110.853,168.939 114.774 L 170.496 115.050 171.879 112.297 C 178.719 98.681,194.957 91.332,209.375 95.325 M207.447 104.448 C 211.055 105.703,213.418 107.135,216.113 109.700 C 218.786 112.244,219.057 113.027,216.621 111.168 C 205.238 102.479,186.003 106.622,179.767 119.105 C 178.271 122.099,178.087 121.078,179.463 117.422 C 183.649 106.301,196.133 100.514,207.447 104.448 M153.916 126.402 C 146.607 134.331,148.178 150.165,156.938 156.853 C 159.107 158.509,158.839 158.546,155.665 157.031 C 143.825 151.381,142.632 132.083,153.705 125.331 C 155.613 124.167,155.677 124.492,153.916 126.402 M249.700 128.048 C 256.882 135.578,256.926 146.928,249.802 154.623 C 248.130 156.429,242.969 159.949,242.969 159.283 C 242.969 159.208,244.007 158.078,245.276 156.773 C 252.438 149.409,253.864 136.569,248.452 128.194 C 246.499 125.173,246.911 125.125,249.700 128.048 M237.385 136.035 C 237.262 137.378,236.755 143.179,236.258 148.926 C 235.762 154.673,235.243 159.375,235.106 159.375 C 234.969 159.375,234.096 158.206,233.165 156.777 L 231.472 154.179 230.677 155.285 C 220.838 168.989,211.443 177.331,199.407 183.052 C 174.683 194.804,148.361 189.550,155.159 174.219 L 155.765 172.852 155.768 175.470 C 155.777 181.831,159.382 184.375,168.387 184.375 C 187.244 184.375,208.520 171.208,219.947 152.466 C 222.785 147.810,222.866 148.312,219.141 147.461 C 217.422 147.068,216.020 146.644,216.025 146.518 C 216.030 146.392,219.209 144.443,223.088 142.188 C 226.968 139.932,231.666 137.089,233.528 135.871 C 237.755 133.107,237.653 133.103,237.385 136.035 M210.156 149.344 C 210.156 149.413,209.453 152.960,208.594 157.227 C 207.734 161.493,207.031 165.051,207.031 165.132 C 207.031 165.708,206.112 164.515,205.633 163.317 L 205.049 161.857 201.010 165.833 C 186.480 180.135,161.674 185.215,159.920 174.246 C 159.625 172.403,160.320 172.009,160.681 173.814 C 161.506 177.940,172.464 177.423,181.804 172.817 C 187.739 169.891,195.258 163.607,198.831 158.589 L 199.645 157.447 198.212 156.849 C 197.424 156.519,196.537 156.250,196.241 156.250 C 194.794 156.250,196.159 155.401,200.879 153.365 C 203.726 152.137,206.846 150.710,207.813 150.193 C 209.473 149.306,210.156 149.058,210.156 149.344 M230.469 177.393 L 230.469 186.037 228.418 185.796 C 227.290 185.663,223.593 185.438,220.202 185.296 C 212.549 184.976,212.265 184.667,218.859 183.833 C 227.666 182.719,226.881 182.969,227.381 181.119 C 227.623 180.224,228.242 177.471,228.756 175.000 C 230.009 168.978,230.064 168.750,230.281 168.750 C 230.384 168.750,230.469 172.640,230.469 177.393 M170.400 194.043 C 169.305 197.261,169.266 197.244,169.041 193.457 L 168.895 191.016 170.163 191.016 L 171.431 191.016 170.400 194.043 M83.293 205.190 C 87.415 206.952,90.101 211.230,90.521 216.699 L 90.738 219.531 89.412 219.577 C 88.683 219.603,87.119 219.693,85.938 219.778 C 82.317 220.037,82.147 219.919,81.962 217.009 C 81.541 210.408,72.656 209.870,72.656 216.445 C 72.656 219.035,73.932 220.395,80.185 224.469 C 88.510 229.893,90.634 232.664,90.940 238.496 C 91.441 248.043,84.701 253.634,74.271 252.324 C 67.215 251.438,63.678 247.512,63.040 239.856 L 62.778 236.719 67.103 236.719 L 71.428 236.719 71.671 238.965 C 72.138 243.279,73.655 244.922,77.175 244.922 C 80.402 244.922,82.247 243.066,82.200 239.866 C 82.155 236.840,81.260 235.850,74.609 231.466 C 71.279 229.270,67.957 226.794,67.227 225.962 C 61.158 219.050,63.466 207.905,71.564 205.013 C 74.144 204.091,80.965 204.194,83.293 205.190 M230.930 205.619 C 235.547 207.810,237.808 212.433,237.879 219.824 L 237.891 221.094 233.484 221.094 L 229.078 221.094 228.994 218.652 C 228.826 213.794,227.634 212.109,224.365 212.109 C 219.412 212.109,219.141 212.951,219.141 228.320 C 219.141 243.832,219.418 244.727,224.228 244.727 C 227.920 244.727,229.297 242.599,229.297 236.895 L 229.297 234.766 233.594 234.766 L 237.891 234.766 237.888 237.207 C 237.876 246.555,234.541 251.193,226.985 252.365 C 219.640 253.505,213.616 250.554,211.297 244.680 C 209.367 239.792,209.776 215.703,211.866 211.130 C 214.671 204.995,223.959 202.309,230.930 205.619 M179.503 206.064 C 184.945 207.582,187.976 213.589,187.369 221.655 C 186.669 230.960,182.133 234.766,171.745 234.766 L 168.750 234.766 168.750 243.164 L 168.750 251.563 164.258 251.563 L 159.766 251.563 159.766 228.581 C 159.766 215.941,159.863 205.502,159.981 205.383 C 160.444 204.921,177.542 205.517,179.503 206.064 M122.656 209.180 L 122.656 212.891 117.969 212.891 L 113.281 212.891 113.281 232.227 L 113.281 251.563 108.789 251.563 L 104.297 251.563 104.297 232.227 L 104.297 212.891 99.609 212.891 L 94.922 212.891 94.922 209.180 L 94.922 205.469 108.789 205.469 L 122.656 205.469 122.656 209.180 M152.734 209.180 L 152.734 212.891 144.922 212.891 L 137.109 212.891 137.109 218.359 L 137.109 223.828 143.945 223.828 L 150.781 223.828 150.781 227.539 L 150.781 231.250 143.945 231.250 L 137.109 231.250 137.109 237.500 L 137.109 243.750 145.117 243.750 L 153.125 243.750 153.125 247.656 L 153.125 251.563 140.820 251.563 L 128.516 251.563 128.516 228.516 L 128.516 205.469 140.625 205.469 L 152.734 205.469 152.734 209.180 M253.516 214.648 L 253.516 223.828 258.789 223.828 L 264.063 223.828 264.063 214.648 L 264.063 205.469 268.359 205.469 L 272.656 205.469 272.656 228.516 L 272.656 251.563 268.359 251.563 L 264.063 251.563 264.063 241.602 L 264.063 231.641 258.789 231.641 L 253.516 231.641 253.516 241.602 L 253.516 251.563 249.219 251.563 L 244.922 251.563 244.922 228.516 L 244.922 205.469 249.219 205.469 L 253.516 205.469 253.516 214.648 M305.469 209.180 L 305.469 212.891 297.656 212.891 L 289.844 212.891 289.844 218.359 L 289.844 223.828 296.680 223.828 L 303.516 223.828 303.516 227.539 L 303.516 231.250 296.680 231.250 L 289.844 231.250 289.844 237.500 L 289.844 243.750 297.852 243.750 L 305.859 243.750 305.859 247.656 L 305.859 251.563 293.555 251.563 L 281.250 251.563 281.250 228.516 L 281.250 205.469 293.359 205.469 L 305.469 205.469 305.469 209.180 M336.719 209.180 L 336.719 212.891 328.906 212.891 L 321.094 212.891 321.094 218.555 L 321.094 224.219 327.930 224.219 L 334.766 224.219 334.766 228.125 L 334.766 232.031 327.930 232.031 L 321.094 232.031 321.094 241.797 L 321.094 251.563 316.797 251.563 L 312.500 251.563 312.500 228.516 L 312.500 205.469 324.609 205.469 L 336.719 205.469 336.719 209.180 M168.750 220.079 L 168.750 227.344 171.718 227.344 C 176.698 227.344,178.132 226.120,178.695 221.388 C 179.417 215.321,177.804 213.148,172.430 212.951 L 168.750 212.815 168.750 220.079 M255.659 262.634 C 261.244 265.090,261.898 269.589,258.598 282.873 C 254.875 297.862,252.855 300.481,245.539 299.814 C 224.648 297.907,220.818 296.493,215.675 288.788 C 212.029 283.324,209.045 282.375,193.258 281.660 L 185.149 281.293 184.240 282.202 C 181.135 285.307,151.390 286.144,142.896 283.365 C 136.360 281.227,135.848 272.124,142.100 269.222 C 148.503 266.251,179.318 268.796,183.742 272.662 C 184.961 273.727,184.964 273.727,194.743 274.228 C 209.814 274.999,212.020 274.449,217.336 268.593 C 220.873 264.698,224.223 262.766,228.516 262.145 C 233.208 261.466,253.848 261.838,255.659 262.634 M227.893 264.846 C 224.717 265.495,222.633 266.855,218.604 270.904 C 212.599 276.941,207.995 277.822,189.551 276.463 L 185.547 276.168 185.547 277.537 L 185.547 278.906 187.402 278.912 C 207.219 278.968,213.205 280.697,217.991 287.745 C 222.207 293.955,224.567 294.918,239.844 296.662 C 251.001 297.937,251.526 297.725,253.668 291.088 C 258.919 274.820,259.406 267.544,255.388 265.351 C 253.963 264.573,231.267 264.156,227.893 264.846 M250.206 267.654 C 253.338 269.081,252.758 274.027,249.348 274.968 C 247.925 275.361,230.648 274.616,226.196 273.969 C 222.484 273.430,221.364 270.062,224.364 268.459 C 226.377 267.383,248.125 266.706,250.206 267.654 M235.201 269.958 C 219.332 270.486,222.858 271.580,243.414 272.507 C 248.969 272.758,249.146 272.742,249.575 271.938 C 250.320 270.547,248.920 269.517,246.387 269.592 C 245.259 269.626,240.225 269.790,235.201 269.958 M148.438 270.562 C 142.343 271.121,140.234 272.577,140.234 276.225 C 140.234 281.384,145.655 282.733,164.648 282.301 C 177.863 282.000,182.093 281.353,182.575 279.558 C 183.272 276.956,182.760 274.804,181.258 274.028 C 177.478 272.073,156.323 269.839,148.438 270.562 M149.232 272.468 C 152.543 274.180,152.086 279.031,148.512 280.102 C 143.779 281.520,140.910 274.758,145.313 272.559 C 146.989 271.721,147.754 271.704,149.232 272.468 M146.172 275.078 C 145.196 276.054,145.920 277.734,147.316 277.734 C 148.021 277.734,149.219 276.751,149.219 276.172 C 149.219 274.975,147.052 274.198,146.172 275.078 M248.165 276.589 C 251.896 277.625,252.199 282.715,248.618 284.211 C 246.574 285.065,225.458 283.068,223.591 281.844 C 221.802 280.672,221.885 277.788,223.735 276.783 C 225.053 276.068,245.698 275.904,248.165 276.589 M225.097 279.395 C 225.297 279.999,226.377 280.155,238.148 281.282 C 248.727 282.296,250.653 281.958,248.214 279.520 C 247.393 278.699,224.825 278.576,225.097 279.395 M140.981 285.902 C 142.364 287.337,143.362 287.977,144.948 288.448 C 152.727 290.758,178.058 288.518,180.722 285.285 C 181.559 284.270,181.569 284.268,184.628 284.697 C 186.315 284.933,189.893 285.234,192.578 285.364 C 205.027 285.970,209.482 287.775,214.900 294.404 C 219.221 299.693,221.172 300.556,232.323 302.115 C 245.500 303.958,247.886 303.928,250.068 301.889 C 253.270 298.898,254.659 298.378,253.772 300.501 C 251.477 305.992,248.348 306.688,234.094 304.879 C 220.063 303.097,217.332 301.808,211.643 294.278 C 209.519 291.467,206.579 289.797,202.148 288.884 C 195.425 287.499,182.943 286.987,182.053 288.059 C 179.846 290.719,150.955 292.926,144.507 290.928 C 140.782 289.774,138.542 287.808,138.042 285.254 C 137.670 283.355,138.758 283.595,140.981 285.902 M242.299 285.566 C 247.289 285.963,248.811 286.491,249.533 288.075 C 250.974 291.238,249.054 293.956,245.450 293.856 C 242.531 293.775,227.805 291.559,225.103 290.794 C 221.993 289.914,220.982 287.576,222.888 285.670 L 223.901 284.657 230.798 284.929 C 234.592 285.078,239.767 285.365,242.299 285.566 M224.744 287.598 C 224.419 288.124,226.385 288.611,232.878 289.615 C 246.691 291.750,247.656 291.775,247.656 290.000 C 247.656 288.692,245.980 288.353,237.305 287.909 C 224.959 287.276,224.943 287.276,224.744 287.598 " stroke="none" fill="#f9f9f9" fill-rule="evenodd"></path><path id="path1" d="M193.138 95.485 C 183.799 97.900,175.010 105.183,171.520 113.398 L 170.823 115.039 165.763 114.904 C 148.385 114.438,135.748 127.032,136.423 144.141 C 137.071 160.574,151.309 172.120,167.090 169.009 L 168.750 168.681 168.750 170.864 L 168.750 173.047 170.255 173.047 L 171.760 173.047 172.013 170.058 C 172.152 168.415,172.266 165.355,172.266 163.259 L 172.266 159.448 175.131 158.255 C 179.072 156.614,184.734 155.198,189.722 154.606 C 193.360 154.174,193.706 154.073,192.364 153.835 C 187.710 153.009,179.341 153.651,172.538 155.356 L 168.319 156.414 168.389 160.478 C 168.471 165.289,168.528 165.220,164.438 165.228 C 140.953 165.276,133.304 132.974,154.189 121.951 C 159.502 119.147,170.196 117.331,169.354 119.375 C 168.856 120.584,168.625 127.406,168.969 130.717 L 169.289 133.789 169.590 130.469 C 172.901 93.879,220.330 89.127,231.065 124.310 L 232.051 127.539 231.836 123.047 C 231.719 120.576,231.582 118.027,231.534 117.383 L 231.445 116.211 234.891 116.098 C 241.154 115.892,246.298 117.872,250.931 122.273 C 265.887 136.480,257.571 160.730,236.752 163.615 C 235.188 163.832,233.854 164.065,233.789 164.133 C 233.724 164.202,233.475 169.092,233.235 175.000 C 232.662 189.134,232.657 189.175,231.320 188.887 C 217.774 185.970,192.013 189.044,175.242 195.580 C 170.498 197.429,170.658 197.506,176.326 196.104 C 196.384 191.144,217.952 190.521,236.426 194.370 L 237.500 194.593 237.500 181.110 L 237.500 167.626 239.355 167.375 C 259.320 164.680,270.075 144.553,261.097 126.689 C 255.671 115.894,241.694 109.040,231.175 112.017 L 229.732 112.425 228.123 109.716 C 221.050 97.812,206.706 91.977,193.138 95.485 M229.163 173.899 C 228.767 175.980,228.143 178.871,227.776 180.325 L 227.109 182.967 221.855 183.629 C 214.704 184.529,214.221 184.648,217.383 184.730 C 218.887 184.769,222.314 185.036,225.000 185.325 C 227.686 185.613,229.931 185.806,229.989 185.754 C 230.047 185.703,230.047 182.163,229.989 177.889 L 229.883 170.117 229.163 173.899 M169.141 193.424 C 169.141 196.117,169.377 196.120,170.395 193.439 C 171.289 191.085,171.281 191.016,170.117 191.016 C 169.181 191.016,169.141 191.115,169.141 193.424 M73.596 204.674 C 67.291 206.024,64.267 209.954,64.267 216.797 C 64.267 223.293,66.305 226.074,75.082 231.553 C 81.501 235.560,82.910 237.464,82.290 241.289 C 81.751 244.607,77.791 246.013,73.716 244.334 C 72.625 243.884,71.791 241.866,71.572 239.147 C 71.388 236.847,71.310 236.674,70.550 236.878 C 70.097 236.999,68.252 237.101,66.449 237.104 L 63.171 237.109 63.379 240.436 C 63.880 248.464,68.190 252.175,76.953 252.125 C 85.529 252.075,89.964 248.402,90.856 240.611 C 91.587 234.224,88.935 230.410,79.413 224.151 C 72.747 219.770,71.531 218.059,72.658 214.644 C 74.416 209.316,81.783 211.293,82.322 217.237 L 82.530 219.531 86.431 219.531 L 90.332 219.531 90.161 216.266 C 89.711 207.691,82.635 202.739,73.596 204.674 M95.242 209.179 L 95.366 212.891 100.027 212.891 L 104.688 212.891 104.687 232.129 L 104.686 251.367 108.788 251.244 L 112.891 251.122 112.891 232.006 L 112.891 212.891 117.578 212.891 C 120.156 212.891,122.274 212.847,122.284 212.793 C 122.293 212.739,122.402 211.069,122.525 209.082 L 122.748 205.469 108.933 205.468 L 95.117 205.467 95.242 209.179 M128.747 207.324 C 128.497 209.319,128.686 251.125,128.946 251.276 C 129.031 251.326,134.506 251.312,141.111 251.244 L 153.120 251.120 153.025 247.635 L 152.930 244.149 145.020 244.145 L 137.109 244.141 137.109 237.695 L 137.109 231.250 143.945 231.250 L 150.781 231.250 150.781 229.351 C 150.781 228.307,150.669 226.637,150.533 225.640 L 150.284 223.828 143.697 223.828 L 137.109 223.828 137.109 218.359 L 137.109 212.891 144.922 212.891 L 152.734 212.891 152.734 209.180 L 152.734 205.469 140.857 205.469 L 128.980 205.469 128.747 207.324 M160.155 228.418 L 160.155 251.367 164.257 251.244 L 168.359 251.122 168.359 242.794 L 168.359 234.467 173.340 234.297 C 183.695 233.942,186.914 230.477,186.914 219.686 L 186.914 214.177 185.547 211.500 C 182.932 206.378,180.328 205.469,168.277 205.469 L 160.156 205.469 160.155 228.418 M176.627 213.420 C 178.455 214.629,179.015 216.439,178.835 220.558 C 178.590 226.149,177.216 227.486,171.680 227.520 L 168.555 227.539 168.448 219.973 L 168.342 212.406 171.964 212.569 C 174.555 212.685,175.882 212.928,176.627 213.420 M231.631 262.109 C 224.736 262.566,222.200 263.752,217.528 268.708 C 212.788 273.736,211.386 274.339,203.961 274.544 C 196.280 274.756,184.685 273.977,184.262 273.221 C 182.020 269.216,148.223 266.252,141.854 269.503 C 137.006 271.977,136.513 279.293,140.993 282.258 C 146.274 285.753,180.374 285.606,184.135 282.073 C 185.179 281.092,187.534 281.020,197.617 281.660 C 209.976 282.444,212.366 283.473,216.587 289.822 C 220.527 295.748,223.849 297.145,237.935 298.801 C 252.727 300.539,253.514 300.124,256.768 288.867 C 261.645 271.995,261.544 265.751,256.353 263.236 C 253.727 261.963,241.941 261.426,231.631 262.109 M255.273 265.117 C 259.448 267.319,259.362 272.069,254.863 287.929 C 251.966 298.140,251.959 298.145,240.485 296.897 C 224.552 295.164,222.096 294.202,217.968 288.085 C 213.273 281.127,209.910 279.918,193.750 279.381 L 185.352 279.102 185.230 277.637 C 185.085 275.881,184.304 275.956,195.972 276.607 C 209.732 277.374,212.790 276.591,218.392 270.862 C 222.882 266.272,225.038 265.043,229.883 264.314 C 234.027 263.691,253.752 264.314,255.273 265.117 M234.570 267.611 C 223.936 268.024,223.047 268.277,223.047 270.898 C 223.047 273.508,224.380 273.850,237.471 274.592 C 250.557 275.334,251.953 275.016,251.953 271.293 C 251.953 267.089,251.348 266.961,234.570 267.611 M249.531 270.000 C 252.403 272.871,246.937 273.397,230.121 271.868 C 225.326 271.432,224.683 271.255,225.374 270.563 C 226.231 269.706,248.713 269.182,249.531 270.000 M170.313 271.452 C 181.473 273.128,183.005 273.865,182.952 277.528 C 182.928 279.180,182.724 279.949,182.162 280.512 C 179.573 283.101,148.821 283.402,143.150 280.893 C 139.095 279.100,138.765 273.652,142.591 271.673 C 145.669 270.081,160.405 269.964,170.313 271.452 M144.501 273.407 C 142.036 275.873,143.704 280.078,147.149 280.078 C 149.007 280.078,150.303 279.212,151.023 277.488 C 152.618 273.671,147.463 270.446,144.501 273.407 M148.351 274.827 C 150.300 276.193,148.283 278.882,146.289 277.575 C 145.109 276.802,145.051 276.042,146.094 275.000 C 147.034 274.060,147.233 274.044,148.351 274.827 M226.033 276.553 C 222.736 276.871,221.402 278.672,222.891 280.797 C 223.808 282.106,224.648 282.314,232.506 283.175 C 248.228 284.898,249.892 284.763,250.812 281.690 C 251.345 279.913,250.803 278.425,249.219 277.316 C 248.184 276.592,231.368 276.039,226.033 276.553 M248.183 279.247 C 249.044 279.963,249.003 281.519,248.111 281.997 C 246.992 282.596,225.661 280.504,224.876 279.719 C 223.823 278.667,225.692 278.488,236.562 278.599 C 245.162 278.687,247.677 278.827,248.183 279.247 M224.010 285.123 C 221.991 285.977,221.677 288.601,223.438 289.902 C 225.411 291.360,245.944 294.247,247.836 293.333 C 250.595 291.999,250.416 287.733,247.552 286.536 C 246.791 286.218,243.245 285.838,238.670 285.583 C 234.481 285.350,229.648 285.076,227.930 284.973 C 226.211 284.871,224.447 284.938,224.010 285.123 M237.363 287.669 C 246.514 288.243,247.656 288.506,247.656 290.039 C 247.656 291.762,246.771 291.818,238.402 290.623 C 225.987 288.851,223.873 288.376,224.426 287.480 C 224.730 286.988,227.037 287.022,237.363 287.669 " stroke="none" fill="#373d40" fill-rule="evenodd"></path><path id="path2" d="M233.594 136.039 C 231.768 137.186,227.241 139.923,223.535 142.120 C 215.928 146.629,215.962 146.591,219.088 147.255 C 222.593 147.998,222.648 148.078,221.324 150.478 C 210.716 169.715,188.243 184.260,168.750 184.505 C 159.640 184.620,155.522 181.917,155.459 175.781 C 155.446 174.548,155.400 174.491,154.985 175.195 C 154.297 176.363,154.415 181.217,155.165 182.617 C 158.505 188.853,170.228 191.026,184.577 188.071 C 201.975 184.487,219.932 171.586,230.656 154.967 L 231.357 153.879 233.093 156.466 C 234.047 157.889,234.912 158.969,235.014 158.866 C 235.334 158.546,237.148 137.795,237.028 135.824 L 236.914 133.954 233.594 136.039 M220.916 204.692 C 212.197 206.242,210.552 210.007,210.527 228.463 C 210.503 246.603,211.624 249.524,219.490 251.818 C 229.535 254.746,237.064 249.427,237.429 239.143 L 237.585 234.731 233.734 234.934 C 231.616 235.046,229.773 235.142,229.639 235.147 C 229.505 235.152,229.311 236.606,229.208 238.379 C 228.917 243.406,227.736 244.928,224.140 244.916 C 219.388 244.900,218.980 243.717,218.811 229.492 C 218.635 214.526,219.102 212.665,223.228 211.891 C 226.820 211.217,228.875 213.317,229.195 217.985 L 229.409 221.094 233.506 221.094 L 237.604 221.094 237.420 217.263 C 236.969 207.892,230.525 202.984,220.916 204.692 M244.922 228.294 L 244.922 251.119 245.753 251.383 C 246.210 251.528,248.055 251.524,249.854 251.374 L 253.125 251.102 253.148 244.203 C 253.160 240.409,253.204 235.986,253.245 234.375 L 253.320 231.445 258.685 231.337 L 264.049 231.228 264.154 241.298 L 264.258 251.367 268.359 251.367 L 272.461 251.367 272.562 228.418 L 272.662 205.469 268.370 205.469 L 264.077 205.469 263.972 214.746 L 263.867 224.023 258.752 224.132 L 253.638 224.241 253.381 218.894 C 253.240 215.954,253.125 211.730,253.125 209.509 L 253.125 205.469 249.023 205.469 L 244.922 205.469 244.922 228.294 M281.345 228.418 L 281.445 251.367 293.457 251.470 L 305.469 251.574 305.469 247.857 L 305.469 244.141 297.656 244.141 L 289.844 244.141 289.844 237.695 L 289.844 231.250 296.484 231.250 L 303.125 231.250 303.125 227.539 L 303.125 223.828 296.484 223.828 L 289.844 223.828 289.844 218.368 L 289.844 212.907 297.559 212.801 L 305.273 212.695 305.399 210.742 C 305.467 209.668,305.413 208.042,305.277 207.129 L 305.030 205.469 293.137 205.469 L 281.244 205.469 281.345 228.418 M312.595 228.418 L 312.695 251.367 316.797 251.367 L 320.898 251.367 321.003 241.504 L 321.107 231.641 327.936 231.641 L 334.766 231.641 334.766 228.183 L 334.766 224.725 331.543 224.474 C 329.771 224.336,326.719 224.222,324.762 224.221 L 321.205 224.219 320.996 218.848 C 320.881 215.894,320.867 213.345,320.964 213.184 C 321.061 213.022,324.557 212.891,328.734 212.891 L 336.328 212.891 336.328 209.180 L 336.328 205.469 324.411 205.469 L 312.494 205.469 312.595 228.418 M138.281 285.021 C 138.281 288.110,142.247 290.668,148.242 291.447 C 157.233 292.615,179.761 290.103,182.497 287.628 C 183.084 287.096,184.022 287.073,190.313 287.440 C 203.264 288.195,207.751 289.529,211.219 293.658 C 218.443 302.258,220.458 303.162,236.719 305.109 C 247.207 306.365,250.413 305.746,252.782 302.011 C 254.857 298.739,253.897 298.552,250.604 301.588 C 247.863 304.114,244.348 304.177,230.078 301.956 C 220.280 300.431,219.053 299.797,214.102 293.691 C 209.077 287.496,201.464 285.156,186.330 285.156 C 184.850 285.156,183.531 284.980,183.398 284.766 C 182.982 284.092,182.105 284.335,180.775 285.491 C 178.080 287.835,167.817 289.423,155.229 289.443 C 146.341 289.457,142.113 288.438,140.839 285.974 C 139.988 284.328,138.281 283.692,138.281 285.021 " stroke="none" fill="#d75f3f" fill-rule="evenodd"></path><path id="path3" d="M194.559 104.137 C 187.576 106.014,181.759 111.214,179.707 117.414 C 179.286 118.686,179.153 119.398,179.412 118.997 C 187.622 106.270,205.974 102.114,216.318 110.639 C 217.826 111.882,216.922 110.380,215.351 109.033 C 209.969 104.418,201.197 102.353,194.559 104.137 M152.494 126.499 C 143.808 132.791,144.240 148.906,153.269 155.390 C 156.685 157.843,157.375 157.702,154.922 155.052 C 148.016 147.594,147.015 136.146,152.547 127.896 C 153.471 126.518,154.182 125.391,154.125 125.391 C 154.069 125.391,153.335 125.889,152.494 126.499 M249.667 129.992 C 253.779 138.132,252.325 148.725,246.053 156.309 C 244.207 158.540,245.096 158.487,247.863 156.201 C 255.911 149.550,257.226 138.201,250.941 129.639 C 248.547 126.378,247.928 126.551,249.667 129.992 M206.834 150.898 C 205.331 151.612,202.305 152.958,200.110 153.890 C 195.773 155.729,195.675 155.858,198.027 156.634 C 200.036 157.297,200.052 157.216,197.228 160.727 C 187.157 173.245,165.587 181.408,160.766 174.525 L 160.156 173.654 160.156 174.688 C 160.156 177.514,164.301 179.688,169.690 179.688 C 180.957 179.688,191.257 175.044,200.983 165.582 L 204.897 161.774 205.835 163.403 C 206.351 164.300,206.823 164.859,206.884 164.645 C 207.349 163.022,209.790 150.267,209.692 149.973 C 209.623 149.768,208.337 150.184,206.834 150.898 " stroke="none" fill="#61adce" fill-rule="evenodd"></path><path id="path4" d="M199.522 94.427 C 200.441 94.510,201.847 94.509,202.647 94.425 C 203.447 94.341,202.695 94.273,200.977 94.275 C 199.258 94.276,198.603 94.345,199.522 94.427 M199.512 100.286 C 200.425 100.368,201.919 100.368,202.832 100.286 C 203.745 100.204,202.998 100.136,201.172 100.136 C 199.346 100.136,198.599 100.204,199.512 100.286 M223.242 103.516 C 224.300 104.590,225.254 105.469,225.361 105.469 C 225.469 105.469,224.691 104.590,223.633 103.516 C 222.575 102.441,221.621 101.563,221.514 101.563 C 221.406 101.563,222.184 102.441,223.242 103.516 M177.524 104.395 L 175.586 106.445 177.637 104.507 C 178.765 103.441,179.688 102.518,179.688 102.456 C 179.688 102.165,179.326 102.489,177.524 104.395 M198.730 103.408 C 199.429 103.494,200.571 103.494,201.270 103.408 C 201.968 103.321,201.396 103.250,200.000 103.250 C 198.604 103.250,198.032 103.321,198.730 103.408 M198.926 106.519 C 199.302 106.618,199.917 106.618,200.293 106.519 C 200.669 106.421,200.361 106.341,199.609 106.341 C 198.857 106.341,198.550 106.421,198.926 106.519 M203.613 106.519 C 203.989 106.618,204.604 106.618,204.980 106.519 C 205.356 106.421,205.049 106.341,204.297 106.341 C 203.545 106.341,203.237 106.421,203.613 106.519 M179.077 109.473 L 177.930 110.742 179.199 109.595 C 180.383 108.525,180.648 108.203,180.347 108.203 C 180.279 108.203,179.708 108.774,179.077 109.473 M184.155 109.863 L 183.008 111.133 184.277 109.986 C 185.461 108.916,185.726 108.594,185.425 108.594 C 185.357 108.594,184.786 109.165,184.155 109.863 M217.385 111.721 C 217.775 112.152,218.179 112.420,218.282 112.317 C 218.545 112.054,217.571 110.938,217.079 110.938 C 216.857 110.938,216.995 111.290,217.385 111.721 M162.598 114.740 C 163.618 114.821,165.288 114.821,166.309 114.740 C 167.329 114.660,166.494 114.594,164.453 114.594 C 162.412 114.594,161.577 114.660,162.598 114.740 M179.043 118.822 C 179.158 119.185,179.070 119.542,178.846 119.616 C 178.622 119.691,178.500 120.164,178.575 120.667 C 178.703 121.530,178.735 121.515,179.150 120.402 C 179.437 119.631,179.458 119.039,179.211 118.693 C 178.919 118.285,178.881 118.315,179.043 118.822 M143.931 123.145 L 141.992 125.195 144.043 123.257 C 145.171 122.191,146.094 121.268,146.094 121.206 C 146.094 120.915,145.732 121.239,143.931 123.145 M232.138 124.219 C 232.138 125.186,232.214 125.581,232.307 125.098 C 232.400 124.614,232.400 123.823,232.307 123.340 C 232.214 122.856,232.138 123.252,232.138 124.219 M168.496 126.172 C 168.496 127.998,168.563 128.745,168.645 127.832 C 168.728 126.919,168.728 125.425,168.645 124.512 C 168.563 123.599,168.496 124.346,168.496 126.172 M148.618 126.270 L 146.680 128.320 148.730 126.382 C 149.858 125.316,150.781 124.393,150.781 124.331 C 150.781 124.040,150.419 124.364,148.618 126.270 M153.613 125.386 C 152.915 125.812,152.344 126.286,152.344 126.440 C 152.344 126.593,152.555 126.508,152.813 126.250 C 153.537 125.526,154.067 125.696,153.481 126.465 C 153.194 126.841,153.524 126.632,154.214 126.001 C 156.037 124.335,155.776 124.068,153.613 125.386 M247.495 126.754 C 247.845 127.290,248.300 127.624,248.506 127.497 C 248.717 127.366,248.588 126.945,248.207 126.524 C 247.237 125.452,246.745 125.611,247.495 126.754 M169.497 131.641 C 169.371 133.252,169.327 134.644,169.400 134.733 C 169.795 135.222,169.945 134.153,169.842 131.590 L 169.727 128.711 169.497 131.641 M236.486 134.045 C 236.319 134.315,236.378 134.390,236.634 134.232 C 236.906 134.064,237.117 134.503,237.215 135.441 L 237.369 136.914 237.434 135.254 C 237.498 133.655,237.067 133.105,236.486 134.045 M251.653 137.500 C 251.653 138.252,251.734 138.560,251.832 138.184 C 251.930 137.808,251.930 137.192,251.832 136.816 C 251.734 136.440,251.653 136.748,251.653 137.500 M264.169 137.891 C 264.169 138.857,264.245 139.253,264.338 138.770 C 264.431 138.286,264.431 137.495,264.338 137.012 C 264.245 136.528,264.169 136.924,264.169 137.891 M258.331 139.648 C 258.333 141.152,258.404 141.720,258.488 140.909 C 258.573 140.099,258.571 138.868,258.485 138.175 C 258.399 137.481,258.330 138.145,258.331 139.648 M148.940 139.258 C 148.943 140.332,149.019 140.725,149.108 140.131 C 149.198 139.538,149.196 138.659,149.103 138.178 C 149.010 137.698,148.937 138.184,148.940 139.258 M145.802 140.430 C 145.806 141.289,145.886 141.595,145.979 141.109 C 146.073 140.623,146.069 139.920,145.972 139.546 C 145.874 139.173,145.797 139.570,145.802 140.430 M141.928 142.578 C 141.928 144.189,141.997 144.849,142.081 144.043 C 142.166 143.237,142.166 141.919,142.081 141.113 C 141.997 140.308,141.928 140.967,141.928 142.578 M236.809 141.016 C 236.809 141.768,236.890 142.075,236.988 141.699 C 237.086 141.323,237.086 140.708,236.988 140.332 C 236.890 139.956,236.809 140.264,236.809 141.016 M136.069 142.969 C 136.069 144.580,136.138 145.239,136.222 144.434 C 136.306 143.628,136.306 142.310,136.222 141.504 C 136.138 140.698,136.069 141.357,136.069 142.969 M264.169 141.797 C 264.169 142.764,264.245 143.159,264.338 142.676 C 264.431 142.192,264.431 141.401,264.338 140.918 C 264.245 140.435,264.169 140.830,264.169 141.797 M251.653 142.578 C 251.653 143.330,251.734 143.638,251.832 143.262 C 251.930 142.886,251.930 142.271,251.832 141.895 C 251.734 141.519,251.653 141.826,251.653 142.578 M208.984 149.652 C 208.484 150.012,208.494 150.043,209.057 149.863 C 209.419 149.748,209.801 149.863,209.905 150.120 C 210.009 150.376,210.108 150.278,210.125 149.902 C 210.161 149.121,209.825 149.047,208.984 149.652 M244.603 157.470 C 242.645 159.318,242.627 159.591,244.531 158.575 C 245.283 158.174,245.648 157.838,245.342 157.829 C 244.952 157.817,245.059 157.521,245.703 156.836 C 247.117 155.331,246.482 155.697,244.603 157.470 M156.241 157.081 C 155.734 157.433,155.735 157.462,156.247 157.323 C 156.567 157.235,157.063 157.398,157.349 157.683 C 157.634 157.969,158.061 158.203,158.296 158.203 C 158.531 158.203,158.651 158.157,158.561 158.101 C 158.472 158.045,158.043 157.703,157.608 157.340 C 157.035 156.861,156.660 156.790,156.241 157.081 M235.215 157.933 C 235.175 158.688,235.004 158.944,234.668 158.755 C 234.280 158.536,234.279 158.586,234.661 158.999 C 235.320 159.709,235.639 159.278,235.439 157.946 L 235.273 156.836 235.215 157.933 M147.266 157.544 C 147.266 157.611,147.837 158.183,148.535 158.814 L 149.805 159.961 148.657 158.691 C 147.588 157.508,147.266 157.242,147.266 157.544 M172.377 161.133 C 172.380 162.207,172.456 162.600,172.546 162.006 C 172.636 161.413,172.633 160.534,172.541 160.053 C 172.448 159.573,172.374 160.059,172.377 161.133 M194.141 163.867 C 193.192 164.834,192.503 165.625,192.611 165.625 C 192.718 165.625,193.582 164.834,194.531 163.867 C 195.480 162.900,196.169 162.109,196.061 162.109 C 195.954 162.109,195.089 162.900,194.141 163.867 M201.161 165.527 L 198.633 168.164 201.270 165.636 C 202.720 164.246,203.906 163.059,203.906 163.000 C 203.906 162.712,203.508 163.078,201.161 165.527 M220.099 168.066 L 218.555 169.727 220.215 168.182 C 221.759 166.746,222.055 166.406,221.759 166.406 C 221.695 166.406,220.948 167.153,220.099 168.066 M233.315 168.555 C 233.318 169.629,233.394 170.022,233.483 169.428 C 233.573 168.834,233.571 167.956,233.478 167.475 C 233.385 166.995,233.312 167.480,233.315 168.555 M237.673 179.102 C 237.673 185.547,237.726 188.238,237.792 185.083 C 237.858 181.927,237.858 176.654,237.792 173.364 C 237.727 170.074,237.673 172.656,237.673 179.102 M168.433 170.996 L 168.359 173.438 169.824 173.375 C 171.239 173.315,171.247 173.307,170.038 173.156 C 168.816 173.004,168.784 172.950,168.647 170.777 L 168.507 168.555 168.433 170.996 M230.022 169.238 C 229.946 169.507,229.978 173.418,230.094 177.930 L 230.305 186.133 230.387 177.441 C 230.462 169.420,230.396 167.929,230.022 169.238 M171.992 171.094 C 171.992 172.275,172.065 172.759,172.155 172.168 C 172.244 171.577,172.244 170.610,172.155 170.020 C 172.065 169.429,171.992 169.912,171.992 171.094 M159.772 173.730 C 159.776 174.568,159.861 174.675,160.156 174.219 C 160.650 173.454,160.650 172.656,160.156 172.656 C 159.941 172.656,159.768 173.140,159.772 173.730 M155.315 173.666 C 155.184 174.007,155.248 174.578,155.456 174.936 C 155.758 175.453,155.838 175.326,155.847 174.316 C 155.861 172.926,155.682 172.709,155.315 173.666 M232.941 177.148 C 232.942 178.652,233.013 179.220,233.098 178.409 C 233.182 177.599,233.181 176.368,233.094 175.675 C 233.008 174.981,232.939 175.645,232.941 177.148 M166.316 176.846 C 167.018 176.933,168.072 176.931,168.659 176.842 C 169.246 176.752,168.672 176.681,167.383 176.684 C 166.094 176.686,165.613 176.759,166.316 176.846 M169.043 179.963 C 169.526 180.056,170.317 180.056,170.801 179.963 C 171.284 179.870,170.889 179.794,169.922 179.794 C 168.955 179.794,168.560 179.870,169.043 179.963 M226.953 182.357 C 226.953 182.607,226.558 182.833,226.074 182.858 C 225.351 182.895,225.324 182.936,225.920 183.090 C 226.700 183.290,227.661 182.609,227.220 182.168 C 227.073 182.021,226.953 182.106,226.953 182.357 M232.539 185.547 C 232.539 186.729,232.612 187.212,232.702 186.621 C 232.791 186.030,232.791 185.063,232.702 184.473 C 232.612 183.882,232.539 184.365,232.539 185.547 M166.699 184.658 C 167.397 184.744,168.540 184.744,169.238 184.658 C 169.937 184.571,169.365 184.500,167.969 184.500 C 166.572 184.500,166.001 184.571,166.699 184.658 M213.908 184.831 C 214.018 185.010,215.724 185.136,217.699 185.111 C 221.836 185.059,221.524 184.880,216.912 184.659 C 215.149 184.575,213.797 184.652,213.908 184.831 M214.174 187.789 C 215.418 187.867,217.351 187.866,218.471 187.787 C 219.591 187.709,218.574 187.645,216.211 187.646 C 213.848 187.647,212.931 187.711,214.174 187.789 M224.516 188.167 C 225.002 188.260,225.705 188.257,226.079 188.159 C 226.452 188.061,226.055 187.985,225.195 187.989 C 224.336 187.993,224.030 188.073,224.516 188.167 M204.590 192.083 C 205.503 192.165,206.997 192.165,207.910 192.083 C 208.823 192.001,208.076 191.933,206.250 191.933 C 204.424 191.933,203.677 192.001,204.590 192.083 M213.956 192.079 C 214.650 192.165,215.880 192.167,216.691 192.082 C 217.501 191.997,216.934 191.927,215.430 191.925 C 213.926 191.923,213.263 191.993,213.956 192.079 M198.926 192.457 C 199.302 192.555,199.917 192.555,200.293 192.457 C 200.669 192.359,200.361 192.278,199.609 192.278 C 198.857 192.278,198.550 192.359,198.926 192.457 M221.191 192.457 C 221.567 192.555,222.183 192.555,222.559 192.457 C 222.935 192.359,222.627 192.278,221.875 192.278 C 221.123 192.278,220.815 192.359,221.191 192.457 M159.945 205.566 C 159.842 205.835,159.805 216.338,159.863 228.906 L 159.967 251.758 160.062 228.638 L 160.156 205.518 161.426 205.361 L 162.695 205.203 161.414 205.141 C 160.696 205.106,160.049 205.293,159.945 205.566 M164.941 205.347 C 165.317 205.446,165.933 205.446,166.309 205.347 C 166.685 205.249,166.377 205.169,165.625 205.169 C 164.873 205.169,164.565 205.249,164.941 205.347 M253.282 211.328 C 253.282 214.658,253.342 216.021,253.415 214.355 C 253.489 212.690,253.489 209.966,253.415 208.301 C 253.342 206.636,253.282 207.998,253.282 211.328 M336.471 209.180 C 336.472 211.328,336.537 212.157,336.617 211.022 C 336.696 209.887,336.695 208.129,336.615 207.116 C 336.535 206.103,336.470 207.031,336.471 209.180 M95.063 209.375 C 95.063 211.416,95.129 212.251,95.209 211.230 C 95.289 210.210,95.289 208.540,95.209 207.520 C 95.129 206.499,95.063 207.334,95.063 209.375 M223.535 211.988 C 223.911 212.086,224.526 212.086,224.902 211.988 C 225.278 211.890,224.971 211.809,224.219 211.809 C 223.467 211.809,223.159 211.890,223.535 211.988 M168.449 220.020 L 168.555 227.539 171.193 227.568 L 173.831 227.597 171.291 227.453 L 168.750 227.308 168.750 220.116 L 168.750 212.923 171.777 212.790 L 174.805 212.657 171.574 212.579 L 168.343 212.500 168.449 220.020 M104.478 232.227 C 104.478 242.969,104.528 247.307,104.590 241.867 C 104.651 236.428,104.651 227.638,104.589 222.336 C 104.528 217.034,104.478 221.484,104.478 232.227 M112.891 232.018 L 112.891 251.145 108.887 251.271 L 104.883 251.398 109.082 251.480 L 113.281 251.563 113.281 232.227 C 113.281 221.592,113.193 212.891,113.086 212.891 C 112.979 212.891,112.891 221.498,112.891 232.018 M320.802 214.648 C 320.806 215.508,320.886 215.813,320.979 215.327 C 321.073 214.842,321.069 214.138,320.972 213.765 C 320.874 213.392,320.797 213.789,320.802 214.648 M63.770 216.602 C 63.775 217.461,63.855 217.767,63.948 217.281 C 64.042 216.795,64.038 216.092,63.940 215.718 C 63.842 215.345,63.766 215.742,63.770 216.602 M72.356 216.406 C 72.356 217.158,72.437 217.466,72.535 217.090 C 72.633 216.714,72.633 216.099,72.535 215.723 C 72.437 215.347,72.356 215.654,72.356 216.406 M90.355 217.383 C 90.358 218.672,90.431 219.152,90.517 218.450 C 90.604 217.748,90.603 216.693,90.513 216.106 C 90.424 215.519,90.353 216.094,90.355 217.383 M82.143 217.773 C 82.146 218.848,82.222 219.241,82.312 218.647 C 82.401 218.053,82.399 217.174,82.306 216.694 C 82.214 216.213,82.140 216.699,82.143 217.773 M229.005 217.773 C 229.009 218.633,229.089 218.938,229.183 218.452 C 229.276 217.967,229.272 217.263,229.175 216.890 C 229.077 216.517,229.000 216.914,229.005 217.773 M187.246 219.922 C 187.246 221.748,187.313 222.495,187.395 221.582 C 187.478 220.669,187.478 219.175,187.395 218.262 C 187.313 217.349,187.246 218.096,187.246 219.922 M218.922 227.930 C 218.923 234.160,218.977 236.654,219.042 233.472 C 219.108 230.290,219.108 225.192,219.042 222.144 C 218.976 219.096,218.922 221.699,218.922 227.930 M210.319 224.414 C 210.319 228.496,210.377 230.113,210.448 228.007 C 210.518 225.901,210.518 222.561,210.447 220.585 C 210.376 218.609,210.319 220.332,210.319 224.414 M237.612 219.336 C 237.615 220.410,237.691 220.803,237.780 220.209 C 237.870 219.616,237.868 218.737,237.775 218.256 C 237.682 217.776,237.609 218.262,237.612 219.336 M73.047 219.263 C 73.047 219.330,73.618 219.901,74.316 220.532 L 75.586 221.680 74.439 220.410 C 73.369 219.227,73.047 218.961,73.047 219.263 M83.301 219.801 C 83.677 219.899,84.292 219.899,84.668 219.801 C 85.044 219.702,84.736 219.622,83.984 219.622 C 83.232 219.622,82.925 219.702,83.301 219.801 M150.481 225.000 C 150.481 225.752,150.562 226.060,150.660 225.684 C 150.758 225.308,150.758 224.692,150.660 224.316 C 150.562 223.940,150.481 224.248,150.481 225.000 M255.957 224.118 C 257.407 224.193,259.780 224.193,261.230 224.118 C 262.681 224.043,261.494 223.981,258.594 223.981 C 255.693 223.981,254.507 224.043,255.957 224.118 M303.268 227.539 C 303.269 229.688,303.334 230.517,303.413 229.381 C 303.493 228.246,303.492 226.488,303.412 225.475 C 303.331 224.462,303.267 225.391,303.268 227.539 M128.606 225.391 C 128.606 226.143,128.687 226.450,128.785 226.074 C 128.883 225.698,128.883 225.083,128.785 224.707 C 128.687 224.331,128.606 224.639,128.606 225.391 M331.550 224.502 C 332.252 224.589,333.307 224.587,333.894 224.498 C 334.481 224.409,333.906 224.338,332.617 224.340 C 331.328 224.342,330.848 224.415,331.550 224.502 M67.773 226.563 C 68.613 227.422,69.387 228.125,69.494 228.125 C 69.602 228.125,69.003 227.422,68.164 226.563 C 67.325 225.703,66.550 225.000,66.443 225.000 C 66.336 225.000,66.934 225.703,67.773 226.563 M128.669 233.203 C 128.669 236.104,128.730 237.290,128.805 235.840 C 128.880 234.390,128.880 232.017,128.805 230.566 C 128.730 229.116,128.669 230.303,128.669 233.203 M85.938 228.638 C 85.938 228.705,86.509 229.276,87.207 229.907 L 88.477 231.055 87.329 229.785 C 86.260 228.602,85.938 228.336,85.938 228.638 M253.288 231.779 C 253.176 232.071,253.148 233.433,253.225 234.807 L 253.365 237.305 253.440 234.484 L 253.516 231.663 258.887 231.542 L 264.258 231.421 258.874 231.336 C 254.645 231.268,253.448 231.363,253.288 231.779 M324.297 231.931 C 326.166 232.003,329.330 232.003,331.328 231.932 C 333.326 231.861,331.797 231.802,327.930 231.802 C 324.063 231.802,322.428 231.860,324.297 231.931 M210.295 236.914 C 210.294 238.848,210.360 239.688,210.442 238.781 C 210.524 237.875,210.525 236.293,210.444 235.266 C 210.363 234.239,210.296 234.980,210.295 236.914 M168.359 242.760 L 168.359 251.145 164.355 251.271 L 160.352 251.398 164.551 251.480 L 168.750 251.563 168.750 243.179 L 168.750 234.795 172.363 234.666 L 175.977 234.537 172.168 234.456 L 168.359 234.375 168.359 242.760 M231.157 235.042 C 231.643 235.135,232.346 235.132,232.719 235.034 C 233.093 234.936,232.695 234.860,231.836 234.864 C 230.977 234.868,230.671 234.948,231.157 235.042 M237.634 237.695 C 237.635 239.414,237.704 240.069,237.787 239.150 C 237.869 238.231,237.868 236.825,237.784 236.025 C 237.700 235.225,237.632 235.977,237.634 237.695 M62.961 238.770 L 63.031 240.820 63.177 238.979 L 63.323 237.138 66.915 237.010 L 70.508 236.881 66.699 236.800 L 62.891 236.719 62.961 238.770 M253.125 244.313 L 253.125 251.127 251.465 251.276 L 249.805 251.426 251.660 251.494 L 253.516 251.563 253.516 244.531 C 253.516 240.664,253.428 237.500,253.320 237.500 C 253.213 237.500,253.125 240.566,253.125 244.313 M141.135 244.042 C 143.456 244.111,147.147 244.111,149.338 244.041 C 151.528 243.972,149.629 243.915,145.117 243.915 C 140.605 243.916,138.813 243.973,141.135 244.042 M297.545 244.042 L 305.441 244.157 305.568 247.957 L 305.696 251.758 305.778 247.754 L 305.859 243.750 297.754 243.839 L 289.648 243.928 297.545 244.042 M152.846 246.289 C 152.849 247.363,152.925 247.756,153.015 247.163 C 153.104 246.569,153.102 245.690,153.009 245.209 C 152.917 244.729,152.843 245.215,152.846 246.289 M128.633 249.609 C 128.633 250.791,128.706 251.274,128.795 250.684 C 128.885 250.093,128.885 249.126,128.795 248.535 C 128.706 247.944,128.633 248.428,128.633 249.609 M234.155 248.926 L 233.008 250.195 234.277 249.048 C 235.461 247.979,235.726 247.656,235.425 247.656 C 235.357 247.656,234.786 248.228,234.155 248.926 M136.450 251.464 C 139.632 251.530,144.729 251.530,147.778 251.464 C 150.826 251.398,148.223 251.344,141.992 251.344 C 135.762 251.344,133.268 251.398,136.450 251.464 M223.340 252.619 C 223.823 252.713,224.614 252.713,225.098 252.619 C 225.581 252.526,225.186 252.450,224.219 252.450 C 223.252 252.450,222.856 252.526,223.340 252.619 M231.934 262.001 C 232.632 262.088,233.774 262.088,234.473 262.001 C 235.171 261.915,234.600 261.844,233.203 261.844 C 231.807 261.844,231.235 261.915,231.934 262.001 M245.605 262.007 C 246.733 262.086,248.579 262.086,249.707 262.007 C 250.835 261.928,249.912 261.863,247.656 261.863 C 245.400 261.863,244.478 261.928,245.605 262.007 M235.621 264.354 C 238.348 264.421,242.918 264.421,245.778 264.355 C 248.637 264.288,246.406 264.233,240.820 264.233 C 235.234 264.232,232.895 264.287,235.621 264.354 M218.750 266.992 C 217.801 267.959,217.113 268.750,217.220 268.750 C 217.328 268.750,218.192 267.959,219.141 266.992 C 220.089 266.025,220.778 265.234,220.670 265.234 C 220.563 265.234,219.699 266.025,218.750 266.992 M237.219 267.475 C 238.246 267.556,239.828 267.555,240.734 267.473 C 241.641 267.391,240.801 267.325,238.867 267.326 C 236.934 267.327,236.192 267.394,237.219 267.475 M227.644 267.861 C 228.346 267.948,229.400 267.946,229.987 267.857 C 230.574 267.768,230.000 267.697,228.711 267.699 C 227.422 267.701,226.942 267.774,227.644 267.861 M146.582 268.238 C 146.958 268.336,147.573 268.336,147.949 268.238 C 148.325 268.140,148.018 268.059,147.266 268.059 C 146.514 268.059,146.206 268.140,146.582 268.238 M159.277 268.244 C 159.761 268.338,160.552 268.338,161.035 268.244 C 161.519 268.151,161.123 268.075,160.156 268.075 C 159.189 268.075,158.794 268.151,159.277 268.244 M238.003 269.820 C 239.246 269.898,241.179 269.897,242.299 269.819 C 243.420 269.740,242.402 269.676,240.039 269.677 C 237.676 269.678,236.759 269.743,238.003 269.820 M258.302 270.898 C 258.306 271.758,258.386 272.063,258.479 271.577 C 258.573 271.092,258.569 270.388,258.472 270.015 C 258.374 269.642,258.297 270.039,258.302 270.898 M218.139 271.191 L 216.992 272.461 218.262 271.314 C 218.960 270.683,219.531 270.111,219.531 270.044 C 219.531 269.742,219.209 270.008,218.139 271.191 M227.832 270.202 C 228.423 270.291,229.390 270.291,229.980 270.202 C 230.571 270.112,230.088 270.039,228.906 270.039 C 227.725 270.039,227.241 270.112,227.832 270.202 M252.044 271.094 C 252.044 271.846,252.124 272.153,252.222 271.777 C 252.321 271.401,252.321 270.786,252.222 270.410 C 252.124 270.034,252.044 270.342,252.044 271.094 M147.559 270.588 C 148.042 270.681,148.833 270.681,149.316 270.588 C 149.800 270.495,149.404 270.419,148.438 270.419 C 147.471 270.419,147.075 270.495,147.559 270.588 M157.722 270.596 C 158.424 270.683,159.479 270.681,160.066 270.592 C 160.653 270.502,160.078 270.431,158.789 270.434 C 157.500 270.436,157.020 270.509,157.722 270.596 M164.160 270.972 C 164.536 271.071,165.151 271.071,165.527 270.972 C 165.903 270.874,165.596 270.794,164.844 270.794 C 164.092 270.794,163.784 270.874,164.160 270.972 M228.223 271.754 C 228.599 271.852,229.214 271.852,229.590 271.754 C 229.966 271.655,229.658 271.575,228.906 271.575 C 228.154 271.575,227.847 271.655,228.223 271.754 M233.110 272.151 C 233.596 272.245,234.299 272.241,234.673 272.143 C 235.046 272.046,234.648 271.969,233.789 271.974 C 232.930 271.978,232.624 272.058,233.110 272.151 M239.362 272.549 C 240.065 272.636,241.119 272.634,241.706 272.545 C 242.293 272.456,241.719 272.384,240.430 272.387 C 239.141 272.389,238.660 272.462,239.362 272.549 M188.574 274.104 C 189.058 274.197,189.849 274.197,190.332 274.104 C 190.815 274.011,190.420 273.935,189.453 273.935 C 188.486 273.935,188.091 274.011,188.574 274.104 M227.051 274.097 C 227.427 274.196,228.042 274.196,228.418 274.097 C 228.794 273.999,228.486 273.919,227.734 273.919 C 226.982 273.919,226.675 273.999,227.051 274.097 M195.020 274.499 C 195.610 274.588,196.577 274.588,197.168 274.499 C 197.759 274.409,197.275 274.336,196.094 274.336 C 194.912 274.336,194.429 274.409,195.020 274.499 M231.934 274.494 C 232.417 274.588,233.208 274.588,233.691 274.494 C 234.175 274.401,233.779 274.325,232.813 274.325 C 231.846 274.325,231.450 274.401,231.934 274.494 M139.942 275.977 C 139.947 276.836,140.027 277.142,140.120 276.656 C 140.213 276.170,140.210 275.467,140.112 275.093 C 140.014 274.720,139.938 275.117,139.942 275.977 M238.770 274.889 C 239.360 274.979,240.327 274.979,240.918 274.889 C 241.509 274.800,241.025 274.726,239.844 274.726 C 238.662 274.726,238.179 274.800,238.770 274.889 M245.996 275.276 C 246.479 275.369,247.271 275.369,247.754 275.276 C 248.237 275.183,247.842 275.106,246.875 275.106 C 245.908 275.106,245.513 275.183,245.996 275.276 M185.305 277.539 L 185.352 279.102 188.771 279.126 L 192.190 279.150 188.891 279.013 L 185.592 278.876 185.425 277.427 L 185.258 275.977 185.305 277.539 M188.965 276.448 C 189.448 276.541,190.239 276.541,190.723 276.448 C 191.206 276.354,190.811 276.278,189.844 276.278 C 188.877 276.278,188.481 276.354,188.965 276.448 M225.494 276.452 C 226.087 276.542,226.966 276.540,227.447 276.447 C 227.927 276.354,227.441 276.281,226.367 276.284 C 225.293 276.287,224.900 276.362,225.494 276.452 M236.446 276.463 C 238.552 276.534,241.892 276.533,243.868 276.463 C 245.844 276.392,244.121 276.334,240.039 276.335 C 235.957 276.335,234.340 276.393,236.446 276.463 M195.612 276.846 C 196.315 276.933,197.369 276.931,197.956 276.842 C 198.543 276.752,197.969 276.681,196.680 276.684 C 195.391 276.686,194.910 276.759,195.612 276.846 M206.738 276.832 C 207.114 276.930,207.729 276.930,208.105 276.832 C 208.481 276.734,208.174 276.653,207.422 276.653 C 206.670 276.653,206.362 276.734,206.738 276.832 M230.153 278.807 C 232.879 278.874,237.450 278.875,240.309 278.808 C 243.168 278.741,240.937 278.686,235.352 278.686 C 229.766 278.686,227.426 278.740,230.153 278.807 M198.145 279.577 C 198.735 279.666,199.702 279.666,200.293 279.577 C 200.884 279.487,200.400 279.414,199.219 279.414 C 198.037 279.414,197.554 279.487,198.145 279.577 M189.366 281.537 C 190.285 281.619,191.691 281.618,192.491 281.534 C 193.291 281.450,192.539 281.382,190.820 281.384 C 189.102 281.385,188.447 281.454,189.366 281.537 M198.340 281.916 C 198.823 282.009,199.614 282.009,200.098 281.916 C 200.581 281.823,200.186 281.747,199.219 281.747 C 198.252 281.747,197.856 281.823,198.340 281.916 M241.895 281.910 C 242.271 282.008,242.886 282.008,243.262 281.910 C 243.638 281.812,243.330 281.731,242.578 281.731 C 241.826 281.731,241.519 281.812,241.895 281.910 M149.907 282.308 C 150.393 282.401,151.096 282.397,151.469 282.300 C 151.843 282.202,151.445 282.125,150.586 282.130 C 149.727 282.134,149.421 282.214,149.907 282.308 M171.391 282.308 C 171.877 282.401,172.580 282.397,172.954 282.300 C 173.327 282.202,172.930 282.125,172.070 282.130 C 171.211 282.134,170.905 282.214,171.391 282.308 M158.674 282.711 C 160.115 282.786,162.576 282.787,164.143 282.712 C 165.710 282.638,164.531 282.577,161.523 282.576 C 158.516 282.575,157.234 282.636,158.674 282.711 M215.039 284.375 C 215.878 285.234,216.653 285.938,216.760 285.938 C 216.868 285.938,216.269 285.234,215.430 284.375 C 214.591 283.516,213.816 282.813,213.709 282.813 C 213.601 282.813,214.200 283.516,215.039 284.375 M241.113 284.254 C 241.489 284.352,242.104 284.352,242.480 284.254 C 242.856 284.155,242.549 284.075,241.797 284.075 C 241.045 284.075,240.737 284.155,241.113 284.254 M171.391 284.651 C 171.877 284.745,172.580 284.741,172.954 284.643 C 173.327 284.546,172.930 284.469,172.070 284.474 C 171.211 284.478,170.905 284.558,171.391 284.651 M183.547 284.875 C 183.735 285.063,184.394 285.154,185.011 285.077 C 186.044 284.949,186.016 284.921,184.668 284.735 C 183.829 284.618,183.350 284.678,183.547 284.875 M157.149 285.057 C 159.255 285.127,162.595 285.127,164.571 285.056 C 166.547 284.986,164.824 284.928,160.742 284.928 C 156.660 284.929,155.043 284.987,157.149 285.057 M228.613 285.045 C 229.204 285.135,230.171 285.135,230.762 285.045 C 231.353 284.956,230.869 284.883,229.688 284.883 C 228.506 284.883,228.022 284.956,228.613 285.045 M191.504 285.426 C 191.880 285.524,192.495 285.524,192.871 285.426 C 193.247 285.327,192.939 285.247,192.188 285.247 C 191.436 285.247,191.128 285.327,191.504 285.426 M236.237 285.439 C 236.940 285.526,237.994 285.524,238.581 285.435 C 239.168 285.346,238.594 285.275,237.305 285.277 C 236.016 285.279,235.535 285.352,236.237 285.439 M242.876 285.823 C 243.362 285.917,244.065 285.913,244.438 285.815 C 244.812 285.717,244.414 285.641,243.555 285.645 C 242.695 285.650,242.390 285.730,242.876 285.823 M183.878 287.391 C 184.571 287.478,185.802 287.479,186.612 287.394 C 187.423 287.310,186.855 287.239,185.352 287.238 C 183.848 287.236,183.185 287.305,183.878 287.391 M226.660 287.394 C 227.466 287.478,228.784 287.478,229.590 287.394 C 230.396 287.310,229.736 287.241,228.125 287.241 C 226.514 287.241,225.854 287.310,226.660 287.394 M193.457 287.769 C 193.833 287.868,194.448 287.868,194.824 287.769 C 195.200 287.671,194.893 287.591,194.141 287.591 C 193.389 287.591,193.081 287.671,193.457 287.769 M235.259 287.780 C 235.853 287.870,236.732 287.868,237.212 287.775 C 237.693 287.682,237.207 287.609,236.133 287.612 C 235.059 287.615,234.666 287.691,235.259 287.780 M241.699 288.166 C 242.183 288.259,242.974 288.259,243.457 288.166 C 243.940 288.073,243.545 287.997,242.578 287.997 C 241.611 287.997,241.216 288.073,241.699 288.166 M148.535 289.332 C 148.911 289.430,149.526 289.430,149.902 289.332 C 150.278 289.234,149.971 289.153,149.219 289.153 C 148.467 289.153,148.159 289.234,148.535 289.332 M161.035 289.332 C 161.411 289.430,162.026 289.430,162.402 289.332 C 162.778 289.234,162.471 289.153,161.719 289.153 C 160.967 289.153,160.659 289.234,161.035 289.332 M220.313 291.211 C 221.041 291.963,221.726 292.578,221.833 292.578 C 221.940 292.578,221.432 291.963,220.703 291.211 C 219.974 290.459,219.290 289.844,219.183 289.844 C 219.075 289.844,219.584 290.459,220.313 291.211 M160.840 291.682 C 161.323 291.775,162.114 291.775,162.598 291.682 C 163.081 291.589,162.686 291.513,161.719 291.513 C 160.752 291.513,160.356 291.589,160.840 291.682 M215.039 298.438 C 215.878 299.297,216.653 300.000,216.760 300.000 C 216.868 300.000,216.269 299.297,215.430 298.438 C 214.591 297.578,213.816 296.875,213.709 296.875 C 213.601 296.875,214.200 297.578,215.039 298.438 M246.587 297.546 C 247.181 297.636,248.060 297.633,248.541 297.541 C 249.021 297.448,248.535 297.374,247.461 297.377 C 246.387 297.380,245.994 297.456,246.587 297.546 M246.587 299.890 C 247.181 299.979,248.060 299.977,248.541 299.884 C 249.021 299.792,248.535 299.718,247.461 299.721 C 246.387 299.724,245.994 299.800,246.587 299.890 M241.113 305.738 C 241.489 305.836,242.104 305.836,242.480 305.738 C 242.856 305.640,242.549 305.559,241.797 305.559 C 241.045 305.559,240.737 305.640,241.113 305.738 " stroke="none" fill="#a4b1b7" fill-rule="evenodd"></path></g></svg>